<?xml version="1.0" encoding="UTF-8"?>
<svg id="Layer_2" data-name="Layer 2" xmlns="http://www.w3.org/2000/svg" viewBox="0 0 987.88 998.79">
  <defs>
    <style>
      .cls-1 {
        fill: #fff;
      }
    </style>
  </defs>
  <g id="Layer_2-2" data-name="Layer 2">
    <g>
      <path class="cls-1" d="M899.26,784.35c-13.95,17.69-29.17,34.34-45.5,49.74-45.11,42.58-98.66,75.62-156.09,96.67-28.71,10.55-58.38,18.08-88.36,22.67-29.99,4.55-60.3,6.06-90.36,4.7-60.14-2.78-119.03-17.3-172.53-42.28-53.55-24.89-101.74-60.01-141.62-102.42-39.89-42.42-71.46-92.1-92.69-145.66-21.29-53.55-32.12-110.92-32.12-168.5-.02-14.4.64-28.78,2.01-43.09,1.33-14.31,3.31-28.56,6.01-42.68,5.33-28.25,13.4-55.98,23.99-82.78,21.2-53.58,52.76-103.31,92.65-145.76,39.88-42.44,88.1-77.59,141.68-102.49,53.53-25,112.46-39.51,172.62-42.27,30.07-1.35,60.4.16,90.39,4.74,29.98,4.61,59.67,12.13,88.38,22.71,57.44,21.08,110.99,54.15,156.09,96.75,16.58,15.64,32.01,32.58,46.13,50.58,2.29-.95,4.59-1.85,6.9-2.72-13.76-19.51-28.94-38.07-45.4-55.49-43.56-46.1-96.18-84.18-154.62-111.08C648.44,18.72,584.21,3.19,518.95.44c-32.62-1.35-65.55.41-98.12,5.49-32.55,5.11-64.76,13.42-95.9,24.98-62.3,23.08-120.25,59.09-169.03,105.34-48.8,46.21-88.4,102.65-115.18,164.95-13.43,31.12-23.63,63.69-30.46,96.95-3.38,16.64-5.98,33.44-7.69,50.33-1.68,16.89-2.54,33.86-2.58,50.82.05,33.91,3.38,67.89,10.21,101.16,3.37,16.64,7.64,33.1,12.73,49.29,2.53,8.1,5.27,16.13,8.21,24.09,2.94,7.95,6.11,15.82,9.47,23.61,26.75,62.33,66.33,118.8,115.14,165.05,48.78,46.29,106.76,82.32,169.08,105.41,31.15,11.59,63.38,19.87,95.95,24.98,32.58,5.09,65.52,6.83,98.16,5.47,65.29-2.77,129.55-18.33,187.93-45.36,58.45-26.93,111.06-65.04,154.61-111.16,16.34-17.3,31.41-35.72,45.09-55.08-2.45-.77-4.89-1.56-7.32-2.39Z"/>
      <path class="cls-1" d="M173.4,608.8l36.55-21.93c25.73,47.37,55.46,71.06,89.19,71.06,14.42,0,27.97-3.36,40.65-10.09,12.67-6.73,22.32-15.74,28.95-27.05,6.62-11.3,9.94-23.29,9.94-35.97,0-14.43-4.88-28.56-14.62-42.4-13.45-19.1-38.01-42.11-73.69-69.01-35.87-27.1-58.19-46.69-66.97-58.78-15.21-20.27-22.81-42.21-22.81-65.8,0-18.72,4.48-35.77,13.45-51.17,8.96-15.4,21.59-27.53,37.87-36.41,16.28-8.87,33.97-13.31,53.08-13.31,20.27,0,39.23,5.02,56.88,15.06,17.64,10.04,36.31,28.51,56,55.42l-35.09,26.61c-16.18-21.44-29.97-35.58-41.38-42.4-11.4-6.82-23.83-10.23-37.28-10.23-17.35,0-31.54,5.26-42.55,15.79-11.02,10.53-16.52,23.49-16.52,38.89,0,9.36,1.95,18.42,5.85,27.2,3.9,8.77,11.01,18.33,21.35,28.66,5.65,5.46,24.17,19.79,55.56,42.99,37.23,27.49,62.77,51.96,76.62,73.4,13.84,21.45,20.76,42.99,20.76,64.63,0,31.19-11.84,58.29-35.53,81.29-23.69,23.01-52.49,34.51-86.41,34.51-26.13,0-49.81-6.97-71.06-20.91-21.25-13.94-40.84-37.28-58.78-70.04Z"/>
      <path class="cls-1" d="M496.53,688.92l30.79-215.08,30.79-215.08h6.99l87.44,176.48,87.44,176.48,86.6-176.48,86.6-176.48,4.17-2.49,4.17-2.49c17.76,33.27,36.98,77.04,50.48,130.37,8.76,34.59,13.37,66.36,15.65,93.91,1.06,34.08-1,80.59-14.09,133.83-14.03,57.07-35.76,101.67-53.67,132.26-.95-.46-1.89-.91-2.84-1.37l-2.84-1.37-8.45-180.06-8.45-180.06-76.05,153.82-76.05,153.82h-10.99l-76.95-154.99-76.95-154.99-21.13,154.99-21.13,154.99h-41.52Z"/>
    </g>
  </g>
</svg>