<?xml version="1.0" encoding="UTF-8"?>
<svg id="Layer_2" data-name="Layer 2" xmlns="http://www.w3.org/2000/svg" viewBox="0 0 1301.89 998.79">
  <defs>
    <style>
      .cls-1 {
        fill: #fff;
      }
    </style>
  </defs>
  <g id="Layer_2-2" data-name="Layer 2">
    <g>
      <path class="cls-1" d="M899.26,784.35c-13.95,17.69-29.17,34.34-45.5,49.74-45.11,42.58-98.66,75.62-156.09,96.67-28.71,10.55-58.38,18.08-88.36,22.67-29.99,4.55-60.3,6.06-90.36,4.7-60.14-2.78-119.03-17.3-172.53-42.28-53.55-24.89-101.74-60.01-141.62-102.42-39.89-42.42-71.46-92.1-92.69-145.66-21.29-53.55-32.12-110.92-32.12-168.5-.02-14.4.64-28.78,2.01-43.09,1.33-14.31,3.31-28.56,6.01-42.68,5.33-28.25,13.4-55.98,23.99-82.78,21.2-53.58,52.76-103.31,92.65-145.76,39.88-42.44,88.1-77.59,141.68-102.49,53.53-25,112.46-39.51,172.62-42.27,30.07-1.35,60.4.16,90.39,4.74,29.98,4.61,59.67,12.13,88.38,22.71,57.44,21.08,110.99,54.15,156.09,96.75,16.58,15.64,32.01,32.58,46.13,50.58,2.29-.95,4.59-1.85,6.9-2.72-13.76-19.51-28.94-38.07-45.4-55.49-43.56-46.1-96.18-84.18-154.62-111.08C648.44,18.72,584.21,3.19,518.95.44c-32.62-1.35-65.55.41-98.12,5.49-32.55,5.11-64.76,13.42-95.9,24.98-62.3,23.08-120.25,59.09-169.03,105.34-48.8,46.21-88.4,102.65-115.18,164.95-13.43,31.12-23.63,63.69-30.46,96.95-3.38,16.64-5.98,33.44-7.69,50.33-1.68,16.89-2.54,33.86-2.58,50.82.05,33.91,3.38,67.89,10.21,101.16,3.37,16.64,7.64,33.1,12.73,49.29,2.53,8.1,5.27,16.13,8.21,24.09,2.94,7.95,6.11,15.82,9.47,23.61,26.75,62.33,66.33,118.8,115.14,165.05,48.78,46.29,106.76,82.32,169.08,105.41,31.15,11.59,63.38,19.87,95.95,24.98,32.58,5.09,65.52,6.83,98.16,5.47,65.29-2.77,129.55-18.33,187.93-45.36,58.45-26.93,111.06-65.04,154.61-111.16,16.34-17.3,31.41-35.72,45.09-55.08-2.45-.77-4.89-1.56-7.32-2.39Z"/>
      <g>
        <g>
          <path class="cls-1" d="M227.14,384.32l17.25-10.35c12.14,22.35,26.17,33.53,42.08,33.53,6.81,0,13.2-1.59,19.18-4.76,5.98-3.17,10.53-7.43,13.66-12.76,3.13-5.33,4.69-10.99,4.69-16.97,0-6.81-2.3-13.47-6.9-20.01-6.35-9.01-17.94-19.87-34.77-32.56-16.93-12.79-27.46-22.03-31.6-27.73-7.17-9.57-10.76-19.92-10.76-31.05,0-8.83,2.12-16.88,6.35-24.15,4.23-7.27,10.19-12.99,17.87-17.18,7.68-4.18,16.03-6.28,25.04-6.28,9.57,0,18.51,2.37,26.84,7.11,8.32,4.74,17.13,13.45,26.42,26.15l-16.56,12.56c-7.64-10.12-14.14-16.79-19.52-20.01-5.38-3.22-11.25-4.83-17.59-4.83-8.19,0-14.88,2.48-20.08,7.45-5.2,4.97-7.8,11.09-7.8,18.35,0,4.42.92,8.69,2.76,12.83,1.84,4.14,5.2,8.65,10.07,13.52,2.67,2.58,11.41,9.34,26.22,20.28,17.57,12.97,29.62,24.52,36.15,34.63,6.53,10.12,9.8,20.28,9.8,30.49,0,14.72-5.59,27.51-16.76,38.36-11.18,10.86-24.77,16.28-40.77,16.28-12.33,0-23.5-3.29-33.53-9.87-10.03-6.58-19.27-17.59-27.73-33.05Z"/>
          <path class="cls-1" d="M402.52,216.25h19.32v55.75h30.63v16.7h-30.63v133.43h-19.32v-133.43h-26.35v-16.7h26.35v-55.75Z"/>
          <path class="cls-1" d="M631.02,272v150.12h-19.04v-25.8c-8.1,9.84-17.18,17.25-27.25,22.21-10.07,4.97-21.09,7.45-33.05,7.45-21.25,0-39.39-7.7-54.43-23.11-15.04-15.41-22.56-34.15-22.56-56.23s7.59-40.11,22.77-55.47c15.18-15.36,33.44-23.04,54.78-23.04,12.33,0,23.48,2.62,33.46,7.86,9.98,5.24,18.74,13.11,26.29,23.6v-27.6h19.04ZM553.81,286.76c-10.75,0-20.67,2.64-29.77,7.93-9.1,5.28-16.33,12.71-21.71,22.26-5.38,9.55-8.06,19.66-8.06,30.32s2.71,20.68,8.13,30.32c5.42,9.65,12.7,17.16,21.84,22.53,9.14,5.38,18.95,8.06,29.43,8.06s20.58-2.66,30.05-7.99c9.46-5.33,16.74-12.54,21.84-21.64,5.1-9.1,7.65-19.34,7.65-30.74,0-17.36-5.72-31.88-17.16-43.55-11.44-11.67-25.52-17.5-42.24-17.5Z"/>
          <path class="cls-1" d="M667.17,272h19.73v21.94c5.89-8.65,12.1-15.11,18.63-19.39,6.53-4.28,13.34-6.42,20.42-6.42,5.33,0,11.04,1.7,17.11,5.1l-10.07,16.28c-4.05-1.75-7.45-2.62-10.21-2.62-6.44,0-12.65,2.64-18.63,7.93-5.98,5.29-10.53,13.5-13.66,24.63-2.39,8.55-3.59,25.85-3.59,51.88v50.78h-19.73v-150.12Z"/>
          <path class="cls-1" d="M756.58,214.05h19.32v208.08h-19.32v-208.08Z"/>
          <path class="cls-1" d="M822.74,210.18c4.4,0,8.15,1.57,11.26,4.69,3.11,3.13,4.67,6.9,4.67,11.31s-1.56,8.05-4.67,11.18c-3.11,3.13-6.87,4.69-11.26,4.69s-8.02-1.56-11.13-4.69c-3.11-3.13-4.67-6.85-4.67-11.18s1.56-8.19,4.67-11.31c3.11-3.13,6.82-4.69,11.13-4.69ZM813.15,272h19.32v150.12h-19.32v-150.12Z"/>
          <path class="cls-1" d="M1002.05,272h19.32v119.63c0,21.07-1.84,36.47-5.52,46.22-5.06,13.8-13.85,24.42-26.35,31.87-12.51,7.45-27.55,11.18-45.12,11.18-12.88,0-24.45-1.82-34.7-5.46-10.26-3.65-18.61-8.54-25.04-14.67-6.44-6.14-12.37-15.11-17.8-26.92h20.97c5.71,9.93,13.08,17.29,22.1,22.08,9.02,4.78,20.22,7.17,33.57,7.17s24.29-2.45,33.36-7.36c9.07-4.91,15.54-11.07,19.41-18.5,3.87-7.43,5.8-19.42,5.8-35.96v-7.73c-7.27,9.2-16.16,16.26-26.66,21.18-10.5,4.92-21.64,7.38-33.42,7.38-13.81,0-26.8-3.43-38.95-10.28-12.16-6.85-21.55-16.08-28.18-27.67-6.63-11.59-9.94-24.33-9.94-38.22s3.45-26.84,10.36-38.84c6.91-12,16.46-21.5,28.66-28.49,12.2-6.99,25.07-10.49,38.6-10.49,11.23,0,21.71,2.32,31.42,6.97,9.71,4.65,19.08,12.3,28.11,22.97v-26.08ZM945.06,286.76c-10.95,0-21.11,2.65-30.49,7.93-9.38,5.29-16.74,12.6-22.08,21.94-5.34,9.34-8,19.43-8,30.29,0,16.47,5.52,30.08,16.56,40.84,11.04,10.76,25.34,16.14,42.91,16.14s32.03-5.33,42.84-16.01c10.81-10.67,16.21-24.7,16.21-42.08,0-11.31-2.48-21.41-7.45-30.29-4.97-8.88-12-15.89-21.11-21.04-9.11-5.15-18.9-7.73-29.39-7.73Z"/>
          <path class="cls-1" d="M1062.76,214.05h19.32v84.86c7.82-10.3,16.42-18.01,25.8-23.11,9.38-5.1,19.55-7.66,30.49-7.66s21.18,2.85,29.87,8.55c8.69,5.7,15.11,13.36,19.25,22.97,4.14,9.61,6.21,24.68,6.21,45.19v77.27h-19.32v-71.61c0-17.29-.69-28.84-2.07-34.63-2.39-9.93-6.74-17.41-13.04-22.42-6.3-5.01-14.56-7.52-24.77-7.52-11.68,0-22.15,3.86-31.39,11.59-9.24,7.73-15.34,17.3-18.28,28.7-1.84,7.36-2.76,20.97-2.76,40.84v55.05h-19.32v-208.08Z"/>
          <path class="cls-1" d="M1251.94,216.25h19.32v55.75h30.63v16.7h-30.63v133.43h-19.32v-133.43h-26.35v-16.7h26.35v-55.75Z"/>
        </g>
        <g>
          <path class="cls-1" d="M352.61,749.98l29.06-202.97h3.3l82.51,166.54,81.72-166.54h3.25l29.21,202.97h-19.89l-20.05-145.16-71.77,145.16h-5.18l-72.62-146.26-19.94,146.26h-19.59Z"/>
          <path class="cls-1" d="M744.76,700.16l16.28,8.55c-5.34,10.49-11.51,18.95-18.51,25.39-7,6.44-14.87,11.34-23.62,14.7-8.75,3.36-18.65,5.04-29.69,5.04-24.49,0-43.64-8.02-57.45-24.08-13.81-16.05-20.72-34.2-20.72-54.43,0-19.04,5.84-36.01,17.54-50.92,14.82-18.95,34.66-28.42,59.52-28.42s46.03,9.71,61.32,29.11c10.86,13.71,16.39,30.82,16.57,51.33h-135.08c.37,17.44,5.94,31.73,16.71,42.88,10.78,11.15,24.08,16.73,39.93,16.73,7.64,0,15.08-1.33,22.31-3.99,7.23-2.66,13.38-6.19,18.44-10.58,5.07-4.4,10.55-11.5,16.44-21.3ZM744.76,659.74c-2.58-10.3-6.33-18.54-11.26-24.7-4.93-6.16-11.44-11.13-19.55-14.9-8.11-3.77-16.62-5.66-25.56-5.66-14.74,0-27.4,4.74-37.99,14.21-7.74,6.9-13.59,17.25-17.54,31.05h111.9Z"/>
          <path class="cls-1" d="M951.87,541.9v208.08h-19.04v-25.8c-8.1,9.84-17.18,17.25-27.25,22.21-10.07,4.97-21.09,7.45-33.05,7.45-21.25,0-39.39-7.7-54.43-23.11-15.04-15.41-22.56-34.15-22.56-56.23s7.59-40.11,22.77-55.47c15.18-15.36,33.44-23.04,54.78-23.04,12.33,0,23.48,2.62,33.46,7.86,9.98,5.24,18.74,13.11,26.29,23.6v-85.55h19.04ZM874.67,614.61c-10.75,0-20.67,2.64-29.77,7.93-9.1,5.28-16.33,12.71-21.71,22.26-5.38,9.55-8.06,19.66-8.06,30.32s2.71,20.68,8.13,30.32c5.42,9.65,12.7,17.16,21.84,22.53,9.14,5.38,18.95,8.06,29.43,8.06s20.58-2.66,30.05-7.99c9.46-5.33,16.74-12.54,21.84-21.64,5.1-9.1,7.65-19.34,7.65-30.74,0-17.36-5.72-31.88-17.16-43.55-11.44-11.67-25.52-17.5-42.24-17.5Z"/>
          <path class="cls-1" d="M1002.3,538.03c4.4,0,8.15,1.57,11.26,4.69,3.11,3.13,4.67,6.9,4.67,11.31s-1.56,8.05-4.67,11.18c-3.11,3.13-6.87,4.69-11.26,4.69s-8.02-1.56-11.13-4.69c-3.11-3.13-4.67-6.85-4.67-11.18s1.56-8.19,4.67-11.31c3.11-3.13,6.82-4.69,11.13-4.69ZM992.71,599.85h19.32v150.12h-19.32v-150.12Z"/>
          <path class="cls-1" d="M1201.76,599.85v150.12h-19.04v-25.8c-8.1,9.84-17.18,17.25-27.25,22.21-10.07,4.97-21.09,7.45-33.05,7.45-21.25,0-39.39-7.7-54.43-23.11-15.04-15.41-22.56-34.15-22.56-56.23s7.59-40.11,22.77-55.47c15.18-15.36,33.44-23.04,54.78-23.04,12.33,0,23.48,2.62,33.46,7.86,9.98,5.24,18.74,13.11,26.29,23.6v-27.6h19.04ZM1124.56,614.61c-10.75,0-20.67,2.64-29.77,7.93-9.1,5.28-16.33,12.71-21.71,22.26-5.38,9.55-8.06,19.66-8.06,30.32s2.71,20.68,8.13,30.32c5.42,9.65,12.7,17.16,21.84,22.53,9.14,5.38,18.95,8.06,29.43,8.06s20.58-2.66,30.05-7.99c9.46-5.33,16.74-12.54,21.84-21.64,5.1-9.1,7.65-19.34,7.65-30.74,0-17.36-5.72-31.88-17.16-43.55-11.44-11.67-25.52-17.5-42.24-17.5Z"/>
        </g>
      </g>
    </g>
  </g>
</svg>