<?xml version="1.0" encoding="UTF-8"?>
<svg id="Layer_2" data-name="Layer 2" xmlns="http://www.w3.org/2000/svg" xmlns:xlink="http://www.w3.org/1999/xlink" viewBox="0 0 880.85 872.16">
  <defs>
    <style>
      .cls-1 {
        opacity: .05;
      }

      .cls-2 {
        fill: #fff;
      }

      .cls-3 {
        fill: none;
        stroke: #fff;
        stroke-linejoin: bevel;
        stroke-width: 5px;
      }

      .cls-4 {
        fill: url(#linear-gradient);
      }
    </style>
    <linearGradient id="linear-gradient" x1="59.55" y1="816.95" x2="822.39" y2="54.11" gradientUnits="userSpaceOnUse">
      <stop offset="0" stop-color="#521b7a"/>
      <stop offset=".26" stop-color="#4d1a78"/>
      <stop offset=".54" stop-color="#401873"/>
      <stop offset=".83" stop-color="#2a166a"/>
      <stop offset="1" stop-color="#1b1464"/>
    </linearGradient>
  </defs>
  <g id="Layer_2-2" data-name="Layer 2">
    <g>
      <g>
        <rect class="cls-4" width="880.85" height="872.16"/>
        <g class="cls-1">
          <path class="cls-2" d="M869.89,10.9v850.36H10.96V10.9h858.93M874.89,5.9H5.96v860.36h868.93V5.9h0Z"/>
          <line class="cls-3" x1="5.96" y1="804.8" x2="874.89" y2="804.8"/>
          <line class="cls-3" x1="5.96" y1="743.35" x2="874.89" y2="743.35"/>
          <line class="cls-3" x1="5.96" y1="681.89" x2="874.89" y2="681.89"/>
          <line class="cls-3" x1="5.96" y1="620.44" x2="874.89" y2="620.44"/>
          <line class="cls-3" x1="5.96" y1="558.99" x2="874.89" y2="558.99"/>
          <line class="cls-3" x1="5.96" y1="497.53" x2="874.89" y2="497.53"/>
          <line class="cls-3" x1="5.96" y1="436.08" x2="874.89" y2="436.08"/>
          <line class="cls-3" x1="5.96" y1="374.62" x2="874.89" y2="374.62"/>
          <line class="cls-3" x1="5.96" y1="313.17" x2="874.89" y2="313.17"/>
          <line class="cls-3" x1="5.96" y1="251.72" x2="874.89" y2="251.72"/>
          <line class="cls-3" x1="5.96" y1="190.26" x2="874.89" y2="190.26"/>
          <line class="cls-3" x1="5.96" y1="128.81" x2="874.89" y2="128.81"/>
          <line class="cls-3" x1="5.96" y1="67.35" x2="874.89" y2="67.35"/>
          <line class="cls-3" x1="812.82" y1="5.9" x2="812.82" y2="866.26"/>
          <line class="cls-3" x1="750.76" y1="5.9" x2="750.76" y2="866.26"/>
          <line class="cls-3" x1="688.69" y1="5.9" x2="688.69" y2="866.26"/>
          <line class="cls-3" x1="626.62" y1="5.9" x2="626.62" y2="866.26"/>
          <line class="cls-3" x1="564.56" y1="5.9" x2="564.56" y2="866.26"/>
          <line class="cls-3" x1="502.49" y1="5.9" x2="502.49" y2="866.26"/>
          <line class="cls-3" x1="440.42" y1="5.9" x2="440.42" y2="866.26"/>
          <line class="cls-3" x1="378.36" y1="5.9" x2="378.36" y2="866.26"/>
          <line class="cls-3" x1="316.29" y1="5.9" x2="316.29" y2="866.26"/>
          <line class="cls-3" x1="254.22" y1="5.9" x2="254.22" y2="866.26"/>
          <line class="cls-3" x1="192.16" y1="5.9" x2="192.16" y2="866.26"/>
          <line class="cls-3" x1="130.09" y1="5.9" x2="130.09" y2="866.26"/>
          <line class="cls-3" x1="68.02" y1="5.9" x2="68.02" y2="866.26"/>
        </g>
      </g>
      <g>
        <path class="cls-2" d="M738.84,645.88c-10.27,13.03-21.47,25.29-33.5,36.62-33.21,31.35-72.64,55.68-114.93,71.17-21.14,7.77-42.98,13.31-65.05,16.69-22.08,3.35-44.39,4.46-66.53,3.46-44.28-2.04-87.64-12.74-127.03-31.13-39.43-18.32-74.91-44.18-104.27-75.41-29.37-31.23-52.62-67.81-68.24-107.24-15.67-39.43-23.65-81.67-23.65-124.06-.02-10.6.47-21.19,1.48-31.73.98-10.54,2.43-21.03,4.42-31.42,3.93-20.8,9.87-41.22,17.66-60.94,15.61-39.45,38.84-76.06,68.22-107.32,29.36-31.25,64.86-57.13,104.31-75.46,39.41-18.4,82.8-29.09,127.1-31.12,22.14-.99,44.47.12,66.55,3.49,22.07,3.39,43.93,8.93,65.07,16.72,42.29,15.52,81.72,39.87,114.92,71.24,12.21,11.52,23.57,23.98,33.97,37.24,1.68-.7,3.38-1.37,5.08-2-10.13-14.36-21.3-28.03-33.43-40.85-32.07-33.94-70.81-61.98-113.84-81.78-42.98-19.88-90.27-31.32-138.32-33.34-24.02-1-48.26.31-72.24,4.04-23.97,3.76-47.68,9.88-70.61,18.39-45.87,16.99-88.53,43.5-124.45,77.56-35.93,34.02-65.08,75.58-84.8,121.44-9.89,22.91-17.4,46.89-22.42,71.38-2.49,12.25-4.4,24.62-5.66,37.06-1.24,12.44-1.87,24.93-1.9,37.41.03,24.97,2.49,49.98,7.52,74.48,2.48,12.25,5.63,24.37,9.37,36.29,1.86,5.96,3.88,11.88,6.04,17.73,2.17,5.86,4.5,11.65,6.97,17.38,19.7,45.89,48.84,87.47,84.77,121.52,35.92,34.08,78.6,60.61,124.49,77.61,22.93,8.53,46.67,14.63,70.64,18.39,23.99,3.74,48.24,5.03,72.27,4.03,48.07-2.04,95.38-13.5,138.36-33.4,43.03-19.83,81.77-47.89,113.83-81.84,12.03-12.74,23.13-26.3,33.2-40.55-1.8-.57-3.6-1.15-5.39-1.76Z"/>
        <path class="cls-2" d="M204.42,516.63l26.91-16.15c18.95,34.88,40.83,52.32,65.67,52.32,10.62,0,20.59-2.48,29.93-7.43,9.33-4.95,16.43-11.59,21.31-19.92,4.88-8.32,7.32-17.15,7.32-26.48,0-10.62-3.59-21.03-10.77-31.22-9.9-14.07-27.99-31-54.26-50.81-26.41-19.95-42.84-34.37-49.3-43.28-11.2-14.93-16.79-31.07-16.79-48.44,0-13.78,3.3-26.34,9.9-37.68,6.6-11.34,15.9-20.27,27.88-26.81,11.98-6.53,25.01-9.8,39.08-9.8,14.93,0,28.88,3.7,41.88,11.09,12.99,7.39,26.73,20.99,41.23,40.8l-25.84,19.59c-11.92-15.79-22.07-26.19-30.47-31.22-8.4-5.02-17.55-7.54-27.45-7.54-12.78,0-23.22,3.88-31.33,11.63-8.11,7.75-12.16,17.3-12.16,28.64,0,6.89,1.43,13.56,4.31,20.02,2.87,6.46,8.11,13.49,15.72,21.1,4.16,4.02,17.8,14.57,40.91,31.65,27.41,20.24,46.22,38.25,56.41,54.04,10.19,15.79,15.29,31.65,15.29,47.58,0,22.97-8.72,42.92-26.16,59.85-17.44,16.94-38.65,25.41-63.62,25.41-19.24,0-36.68-5.13-52.32-15.39-15.65-10.26-30.07-27.45-43.28-51.57Z"/>
        <path class="cls-2" d="M442.33,575.62l22.67-158.36,22.67-158.36h5.14l64.38,129.94,64.38,129.94,63.76-129.94,63.76-129.94,3.07-1.83,3.07-1.83c13.07,24.49,27.23,56.72,37.17,95.99,6.45,25.47,9.84,48.86,11.52,69.14.78,25.09-.74,59.34-10.37,98.53-10.33,42.02-26.33,74.86-39.52,97.38-.7-.34-1.39-.67-2.09-1.01l-2.09-1.01-6.22-132.57-6.22-132.57-55.99,113.25-55.99,113.25h-8.09l-56.66-114.11-56.66-114.11-15.56,114.11-15.56,114.11h-30.57Z"/>
      </g>
    </g>
  </g>
</svg>